<svg
 xmlns="http://www.w3.org/2000/svg"
 xmlns:xlink="http://www.w3.org/1999/xlink"
 width="2.318in" height="2.304in">
<path fill-rule="evenodd"  stroke="rgb(255, 255, 255)" stroke-width="0.61px" stroke-linecap="butt" stroke-linejoin="miter" fill="none"
 d="M83.305,164.523 C37.911,164.523 1.111,127.758 1.111,82.407 C1.111,37.055 37.911,0.290 83.305,0.290 C128.699,0.290 165.499,37.055 165.499,82.407 C165.499,127.758 128.699,164.523 83.305,164.523 ZM122.253,31.866 L99.153,73.551 L66.025,73.998 L65.756,30.077 L42.745,29.809 L42.566,136.525 L66.025,136.883 L65.846,93.409 L88.140,93.230 L70.591,125.254 L90.736,136.435 L114.911,93.498 L121.537,93.409 L121.716,81.423 L142.936,43.406 L122.253,31.866 Z"/>
</svg>
